<svg xmlns="http://www.w3.org/2000/svg" version="1.1" xmlns:xlink="http://www.w3.org/1999/xlink" xmlns:svgjs="http://svgjs.dev/svgjs" width="1500" height="492" viewBox="0 0 1500 492"><g transform="matrix(1,0,0,1,-0.9090909090909918,0.4971849903868417)"><svg viewBox="0 0 396 130" data-background-color="#ffffff" preserveAspectRatio="xMidYMid meet" height="492" width="1500" xmlns="http://www.w3.org/2000/svg" xmlns:xlink="http://www.w3.org/1999/xlink"><g id="tight-bounds" transform="matrix(1,0,0,1,0.2400000000000091,-0.13137001778514446)"><svg viewBox="0 0 395.52 130.2627400355703" height="130.2627400355703" width="395.52"><g><svg viewBox="0 0 643.7552172683636 212.01789672727276" height="130.2627400355703" width="395.52"><g transform="matrix(1,0,0,1,0,29.302039272727285)"><svg viewBox="0 0 395.52 153.4138181818182" height="153.4138181818182" width="395.52"><g id="textblocktransform"><svg viewBox="0 0 395.52 153.4138181818182" height="153.4138181818182" width="395.52" id="textblock"><g><svg viewBox="0 0 395.52 153.4138181818182" height="153.4138181818182" width="395.52"><g transform="matrix(1,0,0,1,0,0)"><svg width="395.52" viewBox="0.42 -32.29 85.92999999999999 33.33" height="153.4138181818182" data-palette-color="#1ebbd7"><path d="M19.72-19.24L12.47 1.04 0.42-31.25 4.44-31.25 11.53-12.5Q11.91-11.53 12.15-10.64 12.4-9.76 12.67-8.54L12.67-8.54Q12.95-9.76 13.21-10.64 13.47-11.53 13.82-12.5L13.82-12.5 20.97-32.29 28.09-12.5Q28.4-11.63 28.7-10.75 28.99-9.86 29.24-8.54L29.24-8.54Q29.51-9.86 29.79-10.75 30.07-11.63 30.42-12.5L30.42-12.5 37.5-31.25 41.25-31.25 29.24 1.04 22.01-19.24Q21.7-20.14 21.42-20.99 21.15-21.84 20.87-23.16L20.87-23.16Q20.59-21.84 20.31-20.99 20.03-20.14 19.72-19.24L19.72-19.24ZM50 0L46.04 0 46.04-31.25 61.46-31.25 61.46-27.71 50-27.71 50-21.04 60.41-21.04 60.41-17.5 50-17.5 50 0ZM75.52 0.42L75.52 0.42Q72.56 0.42 70.1-0.99 67.63-2.4 66.16-4.79 64.68-7.19 64.68-10.17L64.68-10.17Q64.68-13.26 66.26-15.71 67.84-18.16 70.38-19.44L70.38-19.44Q69.37-20.42 68.78-21.67 68.19-22.92 68.19-24.48L68.19-24.48Q68.19-26.53 69.18-28.14 70.17-29.76 71.84-30.71 73.5-31.67 75.52-31.67L75.52-31.67Q77.53-31.67 79.2-30.71 80.86-29.76 81.85-28.14 82.84-26.53 82.84-24.48L82.84-24.48Q82.84-22.92 82.25-21.65 81.66-20.38 80.65-19.44L80.65-19.44Q83.19-18.16 84.77-15.71 86.35-13.26 86.35-10.17L86.35-10.17Q86.35-7.19 84.87-4.79 83.4-2.4 80.93-0.99 78.47 0.42 75.52 0.42ZM75.52-3.13L75.52-3.13Q77.5-3.13 79.11-4.08 80.72-5.03 81.66-6.63 82.6-8.23 82.6-10.21L82.6-10.21Q82.6-12.19 81.66-13.8 80.72-15.42 79.11-16.35 77.5-17.29 75.52-17.29L75.52-17.29Q73.54-17.29 71.94-16.35 70.34-15.42 69.39-13.8 68.43-12.19 68.43-10.21L68.43-10.21Q68.43-8.23 69.39-6.63 70.34-5.03 71.94-4.08 73.54-3.13 75.52-3.13ZM75.52-20.35L75.52-20.35Q77.18-20.35 78.35-21.51 79.51-22.67 79.51-24.34L79.51-24.34Q79.51-26.01 78.35-27.17 77.18-28.33 75.52-28.33L75.52-28.33Q73.85-28.33 72.69-27.17 71.52-26.01 71.52-24.34L71.52-24.34Q71.52-22.67 72.69-21.51 73.85-20.35 75.52-20.35Z" opacity="1" transform="matrix(1,0,0,1,0,0)" fill="#1ebbd7" class="wordmark-text-0" data-fill-palette-color="primary" id="text-0"></path></svg></g></svg></g></svg></g></svg></g><g transform="matrix(1,0,0,1,431.73732054109087,0)"><svg viewBox="0 0 212.01789672727276 212.01789672727276" height="212.01789672727276" width="212.01789672727276"><g data-palette-color="#1ebbd7"><rect width="57.951558438787885" height="212.01789672727276" fill="#1ebbd7" stroke="transparent" data-fill-palette-color="accent" x="0" fill-opacity="1"></rect><rect width="57.951558438787885" height="212.01789672727276" fill="#1ebbd7" stroke="transparent" data-fill-palette-color="accent" x="70.67263224242424" fill-opacity="0.75"></rect><rect width="57.951558438787885" height="212.01789672727276" fill="#1ebbd7" stroke="transparent" data-fill-palette-color="accent" x="141.34526448484849" fill-opacity="0.5"></rect></g></svg></g></svg></g><defs></defs></svg><rect width="395.52" height="130.2627400355703" fill="none" stroke="none" visibility="hidden"></rect></g></svg></g></svg>